<?xml version="1.0" encoding="UTF-8" standalone="no"?>
<!-- Created with Inkscape (http://www.inkscape.org/) -->

<svg
   xmlns:dc="http://purl.org/dc/elements/1.1/"
   xmlns:cc="http://creativecommons.org/ns#"
   xmlns:rdf="http://www.w3.org/1999/02/22-rdf-syntax-ns#"
   xmlns:svg="http://www.w3.org/2000/svg"
   xmlns="http://www.w3.org/2000/svg"
   xmlns:sodipodi="http://sodipodi.sourceforge.net/DTD/sodipodi-0.dtd"
   xmlns:inkscape="http://www.inkscape.org/namespaces/inkscape"
   width="101.99563mm"
   height="60.519588mm"
   viewBox="0 0 361.40183 214.43949"
   id="svg4219"
   version="1.1"
   inkscape:version="0.91 r13725">
  <defs
     id="defs4221" />
  <sodipodi:namedview
     id="base"
     pagecolor="#ffffff"
     bordercolor="#666666"
     borderopacity="1.0"
     inkscape:pageopacity="0.0"
     inkscape:pageshadow="2"
     inkscape:zoom="0.7"
     inkscape:cx="126.06833"
     inkscape:cy="22.983213"
     inkscape:document-units="px"
     inkscape:current-layer="layer1"
     showgrid="false"
     fit-margin-top="0"
     fit-margin-left="0"
     fit-margin-right="0"
     fit-margin-bottom="0"
     inkscape:window-width="1920"
     inkscape:window-height="1017"
     inkscape:window-x="-8"
     inkscape:window-y="-8"
     inkscape:window-maximized="1" />
  <metadata
     id="metadata4224">
    <rdf:RDF>
      <cc:Work
         rdf:about="">
        <dc:format>image/svg+xml</dc:format>
        <dc:type
           rdf:resource="http://purl.org/dc/dcmitype/StillImage" />
        <dc:title></dc:title>
      </cc:Work>
    </rdf:RDF>
  </metadata>
  <g
     inkscape:label="Layer 1"
     inkscape:groupmode="layer"
     id="layer1"
     transform="translate(-39.352509,-42.112286)">
    <rect
       style="opacity:1;fill:#ffffff;fill-opacity:1;stroke:none;stroke-width:5.9000001;stroke-miterlimit:4;stroke-dasharray:none;stroke-opacity:1"
       id="rect4207"
       width="361.40182"
       height="214.43948"
       x="39.352509"
       y="42.112286"
       inkscape:export-xdpi="60"
       inkscape:export-ydpi="60" />
    <path
       sodipodi:type="star"
       style="opacity:1;fill:none;fill-opacity:1;stroke:#000000;stroke-width:2.79238868;stroke-miterlimit:4;stroke-dasharray:none;stroke-opacity:1"
       id="path4157-1-7-5-8"
       sodipodi:sides="11"
       sodipodi:cx="86.428574"
       sodipodi:cy="162.3622"
       sodipodi:r1="77.576546"
       sodipodi:r2="92.353027"
       sodipodi:arg1="0.52359878"
       sodipodi:arg2="0.80919811"
       inkscape:flatsided="false"
       inkscape:rounded="0.09"
       inkscape:randomized="0"
       d="m 153.61183,201.15047 c -1.27181,2.20284 -1.61147,26.29546 -3.45237,28.05076 -1.8409,1.75529 -25.9224,0.9482 -28.18326,2.11375 -2.26085,1.16555 -15.57205,21.24992 -18.0697,21.73131 -2.49765,0.48138 -22.319947,-13.21703 -24.852046,-13.45882 -2.532099,-0.24179 -24.588621,9.45768 -26.950034,8.51232 -2.361412,-0.94537 -11.631068,-23.18595 -13.630486,-24.75831 -1.999417,-1.57236 -25.798473,-5.3373 -27.273916,-7.40927 -1.4754422,-2.07197 2.750592,-25.79349 1.918656,-28.19721 -0.831935,-2.40372 -18.8174929,-18.43773 -18.9385231,-20.97847 -0.1210301,-2.54073 16.2589581,-20.21178 16.8586381,-22.6837 0.599681,-2.47191 -5.8620915,-25.68431 -4.5902831,-27.88715 1.2718085,-2.20283 24.6052201,-8.21297 26.4461221,-9.96827 1.840902,-1.7553 8.954482,-24.776304 11.215339,-25.941857 2.260857,-1.165552 25.139499,6.393391 27.637149,5.912008 2.497651,-0.481382 20.928072,-16.001995 23.460171,-15.760209 2.532099,0.241786 17.692163,18.969902 20.053573,19.915269 2.36142,0.945367 26.25715,-2.147166 28.25657,-0.574806 1.99942,1.57236 4.62769,25.523605 6.10313,27.595575 1.47544,2.07197 23.24976,12.38937 24.0817,14.79309 0.83194,2.40372 -9.90604,23.97374 -9.78501,26.51448 0.12103,2.54073 12.86074,22.99237 12.26106,25.46429 -0.59968,2.47192 -21.29467,14.81238 -22.56648,17.01522 z"
       inkscape:transform-center-y="-25.378772"
       transform="matrix(1.7145472,0,0,1.0992076,73.965799,-28.464656)" />
  </g>
</svg>
